<!--?xml version="1.0" standalone="no"?-->
              <svg id="sw-js-blob-svg" viewBox="0 0 100 100" xmlns="http://www.w3.org/2000/svg" version="1.1">
                    <defs> 
                        <linearGradient id="sw-gradient" x1="0" x2="1" y1="1" y2="0">
                            <stop id="stop1" stop-color="rgba(16.182, 11.423, 154.893, 1)" offset="0%"></stop>
                            <stop id="stop2" stop-color="rgba(239.511, 31, 251, 1)" offset="100%"></stop>
                        </linearGradient>
                    </defs>
                <path fill="url(#sw-gradient)" d="M21.6,-25.8C27.9,-20.5,32.9,-13.6,35.7,-5.2C38.5,3.2,39.1,13.1,34.5,18.8C29.8,24.4,19.9,25.9,10.6,29.3C1.4,32.7,-7.2,38,-13.6,36.2C-20,34.4,-24.2,25.4,-29.7,16.8C-35.1,8.1,-41.7,-0.2,-40.8,-7.5C-39.9,-14.9,-31.6,-21.3,-23.5,-26.2C-15.5,-31.2,-7.7,-34.7,0,-34.7C7.7,-34.7,15.3,-31,21.6,-25.8Z" width="100%" height="100%" transform="translate(50 50)" stroke-width="0" style="transition: all 0.3s ease 0s;"></path>
              </svg>